<svg width="139" height="20" viewBox="0 0 139 20" fill="none" xmlns="http://www.w3.org/2000/svg">
<path fill-rule="evenodd" clip-rule="evenodd" d="M91.2955 15.8461C94.7959 15.8461 97.2686 13.3312 97.2686 9.79811C97.2686 6.26505 94.7959 3.75032 91.2955 3.75032C90.2442 3.75053 89.2842 4.03158 88.4705 4.53411V0H84.5993V15.4737H87.497L87.8663 14.6297C88.7898 15.4013 89.9688 15.8461 91.2955 15.8461ZM64.6907 15.8461C67.7115 15.8463 69.7166 14.2916 69.7166 11.9158C69.7166 9.08169 67.409 8.67295 65.6248 8.3569L65.533 8.34063L65.5105 8.33662C64.4409 8.14588 63.5835 7.99298 63.5835 7.35053C63.5835 6.82358 64.0052 6.51284 64.633 6.51284C65.3425 6.51284 65.8305 6.85032 65.8305 7.57621H69.4974C69.4528 5.27263 67.5766 3.73263 64.6816 3.73263C61.7688 3.73263 59.8269 5.20379 59.8269 7.48253C59.8269 10.2398 62.1637 10.7718 63.9265 11.0575C65.0187 11.2381 65.8793 11.4251 65.8793 12.0808C65.8793 12.6684 65.3364 12.9606 64.7635 12.9606C64.021 12.9606 63.4423 12.5779 63.4423 11.7465H59.6732C59.709 14.2097 61.5922 15.8461 64.6907 15.8461ZM43.706 11.6309C42.906 14.2255 40.6063 15.8465 37.754 15.8465C34.2069 15.8465 31.5791 13.2539 31.5791 9.78084C31.5791 6.29558 34.1858 3.73284 37.754 3.73284C41.4185 3.73284 43.9557 6.34716 43.9555 9.68211C43.9555 10.0246 43.9256 10.3672 43.8747 10.7187H35.4332C35.6894 12.0227 36.5176 12.6971 37.754 12.6971C38.6688 12.6971 39.433 12.2964 39.8094 11.6309H43.706ZM35.5023 8.55032H40.098C39.7545 7.4141 38.9355 6.80105 37.7538 6.80105C36.6126 6.80105 35.8191 7.42105 35.5023 8.55032ZM51.0442 15.8463C52.3646 15.8463 53.5435 15.4118 54.4745 14.6577L54.8098 15.4617H57.837V4.09326L54.9185 4.09305L54.5178 4.97221C53.5791 4.19768 52.3831 3.75053 51.0442 3.75053C47.5679 3.75053 45.0831 6.25642 45.0831 9.77726C45.0831 13.3103 47.5679 15.8463 51.0442 15.8463ZM49.0229 9.78632C49.0229 11.2709 50.101 12.3792 51.5677 12.3792C53.0345 12.3792 54.1126 11.2709 54.1126 9.78632C54.1126 8.31074 53.0345 7.20253 51.5677 7.20253C50.0922 7.20253 49.0229 8.31074 49.0229 9.78632ZM78.6677 14.9678C77.1353 18.4472 75.7267 19.704 72.7913 19.704H71.4505V16.3394H72.5273C74.0254 16.3394 74.4772 15.9493 75.0077 14.5345L70.3098 4.10526H74.565L76.9776 10.3678L79.2258 4.10526H83.4326L78.6677 14.9678ZM88.2269 9.79811C88.2269 11.2705 89.305 12.3787 90.7717 12.3787C92.2294 12.3787 93.3166 11.2705 93.3166 9.79811C93.3166 8.31347 92.2385 7.20526 90.7717 7.20526C89.305 7.20526 88.2269 8.31347 88.2269 9.79811ZM104.37 15.8463C105.691 15.8463 106.87 15.4118 107.801 14.6577L108.136 15.4617H111.163V4.09326L108.245 4.09305L107.844 4.97221C106.905 4.19768 105.709 3.75053 104.37 3.75053C100.894 3.75053 98.4094 6.25642 98.4094 9.77726C98.4094 13.3103 100.894 15.8463 104.37 15.8463ZM102.349 9.78632C102.349 11.2709 103.427 12.3792 104.894 12.3792C106.361 12.3792 107.439 11.2709 107.439 9.78632C107.439 8.31074 106.361 7.20253 104.894 7.20253C103.418 7.20253 102.349 8.31074 102.349 9.78632ZM117.547 15.4737V9.40295C117.547 7.956 118.249 7.10316 119.47 7.10316C120.456 7.10316 120.953 7.75958 120.953 9.08274V15.4737H124.869V8.54169C124.869 5.64526 123.135 3.76905 120.495 3.76905C119.025 3.76905 117.762 4.33432 116.916 5.27747L116.378 4.10526H113.631V15.4737H117.547ZM131.295 10.6661V15.4737H127.38V0H131.295V8.55895L134.004 4.10526H138.4L134.857 9.52358L138.759 15.4737H134.143L131.295 10.6661Z" fill="#2D314D"/>
<path fill-rule="evenodd" clip-rule="evenodd" d="M10.8025 0L0 19.704H5.98608L16.7885 0H10.8025Z" fill="url(#paint0_linear_0_1884)"/>
<path opacity="0.5" fill-rule="evenodd" clip-rule="evenodd" d="M18.1711 0L7.36865 19.704H13.3547L24.1572 0H18.1711Z" fill="url(#paint1_linear_0_1884)"/>
<path opacity="0.15" fill-rule="evenodd" clip-rule="evenodd" d="M25.5393 0L14.7368 19.704H20.7229L31.5254 0H25.5393Z" fill="url(#paint2_linear_0_1884)"/>
<defs>
<linearGradient id="paint0_linear_0_1884" x1="5.13267" y1="-7.42211" x2="-10.1946" y2="9.91277" gradientUnits="userSpaceOnUse">
<stop stop-color="#33D35E"/>
<stop offset="1" stop-color="#2AB6D9"/>
</linearGradient>
<linearGradient id="paint1_linear_0_1884" x1="12.5013" y1="-7.42211" x2="-2.82594" y2="9.91277" gradientUnits="userSpaceOnUse">
<stop stop-color="#33D35E"/>
<stop offset="1" stop-color="#2AB6D9"/>
</linearGradient>
<linearGradient id="paint2_linear_0_1884" x1="19.8695" y1="-7.42211" x2="4.54222" y2="9.91277" gradientUnits="userSpaceOnUse">
<stop stop-color="#33D35E"/>
<stop offset="1" stop-color="#2AB6D9"/>
</linearGradient>
</defs>
</svg>
