<svg  viewBox="0 0 375 424" fill="none" xmlns="http://www.w3.org/2000/svg">
<g id="Group 33">
<g id="Path 6" filter="url(#filter0_d_0_1012)">
<path fill-rule="evenodd" clip-rule="evenodd" d="M-33.9448 68.1393C-56.109 68.1393 -67.2103 94.9355 -51.5397 110.61L27.6206 189.789C40.9857 203.158 59.1147 210.668 78.0181 210.668H100.953C127.478 210.668 152.917 221.207 171.672 239.966L247.39 315.702C266.144 334.461 291.583 345 318.109 345H539.78C584.149 345 606.372 291.359 575.002 259.982L522.167 207.134C510.297 195.261 518.706 174.963 535.495 174.963C552.284 174.963 560.693 154.666 548.823 142.792L436.291 30.2332C420.39 14.3285 398.821 5.39304 376.331 5.39304H258.012C232.031 5.39304 207.114 -4.92965 188.745 -23.3035L186.368 -25.6809C169.52 -42.5325 146.668 -52 122.839 -52H-9.05898C-40.4076 -52 -56.109 -14.0999 -33.9448 8.06964L-16.3499 25.6688C-0.679367 41.3431 -11.7806 68.1393 -33.9448 68.1393Z" fill="#2D314D"/>
</g>
<path id="Path 6 Copy" fill-rule="evenodd" clip-rule="evenodd" d="M180.055 69.1393C157.891 69.1393 146.79 95.9355 162.46 111.61L241.621 190.789C254.986 204.158 273.115 211.668 292.018 211.668H314.953C341.478 211.668 366.917 222.207 385.672 240.966L461.39 316.702C480.144 335.461 505.583 346 532.109 346H753.78C798.149 346 820.372 292.359 789.002 260.982L736.167 208.134C724.297 196.261 732.706 175.963 749.495 175.963C766.284 175.963 774.693 155.666 762.823 143.792L650.291 31.2332C634.39 15.3285 612.821 6.39304 590.331 6.39304H472.012C446.031 6.39304 421.114 -3.92965 402.745 -22.3035L400.368 -24.6809C383.52 -41.5325 360.668 -51 336.839 -51H204.941C173.592 -51 157.891 -13.0999 180.055 9.06964L197.65 26.6688C213.321 42.3431 202.219 69.1393 180.055 69.1393Z" fill="url(#paint0_linear_0_1012)"/>
</g>
<defs>
<filter id="filter0_d_0_1012" x="-135.875" y="-127" width="802.56" height="551" filterUnits="userSpaceOnUse" color-interpolation-filters="sRGB">
<feFlood flood-opacity="0" result="BackgroundImageFix"/>
<feColorMatrix in="SourceAlpha" type="matrix" values="0 0 0 0 0 0 0 0 0 0 0 0 0 0 0 0 0 0 127 0" result="hardAlpha"/>
<feOffset dy="2"/>
<feGaussianBlur stdDeviation="38.5"/>
<feColorMatrix type="matrix" values="0 0 0 0 0 0 0 0 0 0 0 0 0 0 0 0 0 0 0.0240111 0"/>
<feBlend mode="normal" in2="BackgroundImageFix" result="effect1_dropShadow_0_1012"/>
<feBlend mode="normal" in="SourceGraphic" in2="effect1_dropShadow_0_1012" result="shape"/>
</filter>
<linearGradient id="paint0_linear_0_1012" x1="-255.418" y1="146.667" x2="70.5273" y2="765.717" gradientUnits="userSpaceOnUse">
<stop stop-color="#33D35E"/>
<stop offset="1" stop-color="#2AB6D9"/>
</linearGradient>
</defs>
</svg>
